<?xml version="1.0" encoding="utf-8"?>
<!-- Generator: Adobe Illustrator 26.0.3, SVG Export Plug-In . SVG Version: 6.00 Build 0)  -->
<svg version="1.1" id="Layer_1" xmlns="http://www.w3.org/2000/svg" xmlns:xlink="http://www.w3.org/1999/xlink" x="0px" y="0px"
	 viewBox="0 0 191.2 133.1" style="enable-background:new 0 0 191.2 133.1;" xml:space="preserve">
<g>
	<g>
		<path d="M11.5,129.6c0-1.4,0-2.4,0-3.5c0.1-35.7,0.1-71.4,0.3-107.1c0-4.9-0.9-8.6-6.2-9.7c0-1.2,0-2.3,0-3.5
			c0.5-0.1,1-0.3,1.5-0.3c18,0.1,36.1,0,54.1,0.4c11.3,0.3,22.3,2.3,32.3,7.9c0.5,0.3,1.6,0.1,2.1-0.3c8.8-6.5,19-9,29.7-9.5
			c16.1-0.8,32.2,0.3,48.2,2.2c5,0.6,5,0.6,5,5.8c0,11.5,0,22.9,0,34.4c0,0.9,0,1.8,0,2.8c-2.6,0-4.8,0-7.3,0
			c-0.4-8.7-2.8-16.8-7.6-23.9c-8.1-12-19.3-18.4-34.2-17.4c-10.4,0.7-17.8,8.6-17.8,18.5c0,3.9,1.8,6.8,4.5,9.3
			c5.5,5.1,12.3,7.8,19,10.6c11.7,4.9,23.7,9.1,34.4,16.2c8.3,5.5,15.2,12.3,17,22.6c3.2,18.5-4.7,34.9-25.8,41.4
			c-8.7,2.6-17.6,3.5-26.5,3.5c-9.3,0-18.6,0-27.9-0.4c-15.9-0.7-28.4-7.5-37-21.2c-5.6-9-11.3-18-17-26.9c-1.8-2.8-4-4.9-7.7-4.6
			c-3.7,0.3-6.3,2.9-6.4,6.6c-0.1,7,0,14-0.5,20.9c-1,13.1-9.1,22.1-21.9,24.9C14.5,129.4,13.1,129.4,11.5,129.6z M79.5,26.5
			c-0.4-0.7-0.6-1.1-0.8-1.5c-3-6.3-7.8-10.7-14.2-13.3C57.9,9,50.9,9.2,43.9,9.5c-3.3,0.2-5.6,3.1-5.6,6.5c0,16.8,0,33.6,0,50.3
			c0,3.8,2.9,6.6,6.7,6.5c3.7-0.1,7.3-0.3,11-0.4c12.9-0.2,23.8,3.9,31.1,15.2c3.7,5.8,7.6,11.5,11.2,17.3
			c7.5,12.3,18.2,19.1,32.5,20.8c11.5,1.3,21.4-3.2,26.3-12.6c5.6-10.6,3.3-20.6-6.5-27.5c-2.2-1.6-4.6-3.1-7.1-4.1
			c-8-3.3-16-6.4-24-9.5c-8.7-3.4-17.5-6.8-24.9-12.8c-9.6-7.7-13.2-19.3-9.5-31c1.5-4.9,4.3-9.1,7.7-13
			C86.9,17.4,83.1,21.6,79.5,26.5z"/>
	</g>
</g>
</svg>
